<?xml version="1.0" encoding="UTF-8" standalone="no"?>
<!DOCTYPE svg PUBLIC "-//W3C//DTD SVG 1.1//EN"
 "http://www.w3.org/Graphics/SVG/1.1/DTD/svg11.dtd">
<!-- Generated by graphviz version 2.36.0 (20140111.2315)
 -->
<!-- Title: %3 Pages: 1 -->
<svg width="274pt" height="67pt"
 viewBox="0.00 0.00 274.00 67.00" xmlns="http://www.w3.org/2000/svg" xmlns:xlink="http://www.w3.org/1999/xlink">
<g id="graph0" class="graph" transform="scale(1 1) rotate(0) translate(4 63)">
<title>%3</title>
<polygon fill="white" stroke="none" points="-4,4 -4,-63 270,-63 270,4 -4,4"/>
<!-- node1 -->
<g id="node1" class="node"><title>node1</title>
<ellipse fill="none" stroke="black" cx="31" cy="-18" rx="30.5947" ry="18"/>
<text text-anchor="middle" x="31" y="-14.3" font-family="Times,serif" font-size="14.00">Hello</text>
</g>
<!-- node2 -->
<g id="node2" class="node"><title>node2</title>
<polygon fill="none" stroke="black" points="156,-59 98,-59 98,-23 156,-23 156,-59"/>
<text text-anchor="middle" x="127" y="-37.3" font-family="Times,serif" font-size="14.00">Current</text>
</g>
<!-- node1&#45;&gt;node2 -->
<g id="edge2" class="edge"><title>node1&#45;&gt;node2</title>
<path fill="none" stroke="black" d="M59.4414,-24.7144C68.2761,-26.8761 78.233,-29.3123 87.7016,-31.6291"/>
<polygon fill="black" stroke="black" points="87.1629,-35.1005 97.7083,-34.0776 88.8267,-28.3011 87.1629,-35.1005"/>
</g>
<!-- node3 -->
<g id="node3" class="node"><title>node3</title>
<polygon fill="none" stroke="black" points="265.663,-10.5442 265.663,-25.4558 244.186,-36 213.814,-36 192.337,-25.4558 192.337,-10.5442 213.814,-3.55271e-15 244.186,-0 265.663,-10.5442"/>
<text text-anchor="middle" x="229" y="-14.3" font-family="Times,serif" font-size="14.00">World</text>
</g>
<!-- node1&#45;&gt;node3 -->
<g id="edge1" class="edge"><title>node1&#45;&gt;node3</title>
<path fill="none" stroke="black" d="M61.5519,-15.8262C72.9369,-15.0892 86.0669,-14.3613 98,-14 123.766,-13.2199 130.232,-13.2848 156,-14 164.363,-14.2321 173.266,-14.6157 181.858,-15.0557"/>
<polygon fill="black" stroke="black" points="181.95,-18.5658 192.126,-15.6141 182.331,-11.5761 181.95,-18.5658"/>
</g>
<!-- node2&#45;&gt;node3 -->
<g id="edge3" class="edge"><title>node2&#45;&gt;node3</title>
<path fill="none" stroke="black" d="M156.122,-34.532C164.606,-32.5805 174.138,-30.3882 183.418,-28.2538"/>
<polygon fill="black" stroke="black" points="184.366,-31.6272 193.327,-25.9747 182.797,-24.8053 184.366,-31.6272"/>
</g>
</g>
</svg>
