<?xml version="1.0" encoding="UTF-8" standalone="no"?>
<!DOCTYPE svg PUBLIC "-//W3C//DTD SVG 1.1//EN"
 "http://www.w3.org/Graphics/SVG/1.1/DTD/svg11.dtd">
<!-- Generated by graphviz version 2.36.0 (20140111.2315)
 -->
<!-- Title: %3 Pages: 1 -->
<svg width="204pt" height="195pt"
 viewBox="0.00 0.00 204.00 195.00" xmlns="http://www.w3.org/2000/svg" xmlns:xlink="http://www.w3.org/1999/xlink">
<g id="graph0" class="graph" transform="scale(1 1) rotate(0) translate(4 191)">
<title>%3</title>
<polygon fill="white" stroke="none" points="-4,4 -4,-191 200,-191 200,4 -4,4"/>
<g id="clust1" class="cluster"><title>cluster_1</title>
<polygon fill="none" stroke="black" stroke-dasharray="5,2" points="8,-8 8,-179 94,-179 94,-8 8,-8"/>
<text text-anchor="middle" x="51" y="-163.8" font-family="Times,serif" font-size="14.00">10.0.0.1</text>
</g>
<g id="clust2" class="cluster"><title>cluster_2</title>
<polygon fill="none" stroke="black" stroke-dasharray="5,2" points="102,-92 102,-179 188,-179 188,-92 102,-92"/>
<text text-anchor="middle" x="145" y="-163.8" font-family="Times,serif" font-size="14.00">10.0.0.2</text>
</g>
<!-- node1 -->
<g id="node1" class="node"><title>node1</title>
<polygon fill="none" stroke="black" points="16.5,-101 16.5,-147 85.5,-147 85.5,-101 16.5,-101"/>
<text text-anchor="middle" x="51" y="-131.8" font-family="Times,serif" font-size="14.00">follower</text>
<polyline fill="none" stroke="black" points="16.5,-124 85.5,-124 "/>
<text text-anchor="middle" x="34" y="-108.8" font-family="Times,serif" font-size="14.00">foo</text>
<polyline fill="none" stroke="black" points="51.5,-101 51.5,-124 "/>
<text text-anchor="middle" x="68.5" y="-108.8" font-family="Times,serif" font-size="14.00">bar</text>
</g>
<!-- node2 -->
<g id="node2" class="node"><title>node2</title>
<polygon fill="none" stroke="black" points="16.5,-17 16.5,-63 85.5,-63 85.5,-17 16.5,-17"/>
<text text-anchor="middle" x="51" y="-47.8" font-family="Times,serif" font-size="14.00">master</text>
<polyline fill="none" stroke="black" points="16.5,-40 85.5,-40 "/>
<text text-anchor="middle" x="34" y="-24.8" font-family="Times,serif" font-size="14.00">foo</text>
<polyline fill="none" stroke="black" points="51.5,-17 51.5,-40 "/>
<text text-anchor="middle" x="68.5" y="-24.8" font-family="Times,serif" font-size="14.00">bar</text>
</g>
<!-- node1&#45;&gt;node2 -->
<g id="edge1" class="edge"><title>node1&#45;&gt;node2</title>
<path fill="none" stroke="black" d="M51,-100.593C51,-92.1177 51,-82.2974 51,-73.104"/>
<polygon fill="black" stroke="black" points="54.5001,-73.0958 51,-63.0959 47.5001,-73.0959 54.5001,-73.0958"/>
</g>
<!-- node3 -->
<g id="node3" class="node"><title>node3</title>
<polygon fill="none" stroke="black" points="110.5,-101 110.5,-147 179.5,-147 179.5,-101 110.5,-101"/>
<text text-anchor="middle" x="145" y="-131.8" font-family="Times,serif" font-size="14.00">follower</text>
<polyline fill="none" stroke="black" points="110.5,-124 179.5,-124 "/>
<text text-anchor="middle" x="128" y="-108.8" font-family="Times,serif" font-size="14.00">foo</text>
<polyline fill="none" stroke="black" points="145.5,-101 145.5,-124 "/>
<text text-anchor="middle" x="162.5" y="-108.8" font-family="Times,serif" font-size="14.00">bar</text>
</g>
<!-- node3&#45;&gt;node2 -->
<g id="edge2" class="edge"><title>node3&#45;&gt;node2</title>
<path fill="none" stroke="black" d="M119.314,-100.593C108.449,-91.1152 95.6562,-79.9555 84.0965,-69.8714"/>
<polygon fill="black" stroke="black" points="86.1659,-67.0321 76.3294,-63.0959 81.5643,-72.3071 86.1659,-67.0321"/>
</g>
</g>
</svg>
