<?xml version="1.0" encoding="UTF-8" standalone="no"?>
<!DOCTYPE svg PUBLIC "-//W3C//DTD SVG 1.1//EN"
 "http://www.w3.org/Graphics/SVG/1.1/DTD/svg11.dtd">
<!-- Generated by graphviz version 2.36.0 (20140111.2315)
 -->
<!-- Title: %3 Pages: 1 -->
<svg width="222pt" height="204pt"
 viewBox="0.00 0.00 222.00 204.00" xmlns="http://www.w3.org/2000/svg" xmlns:xlink="http://www.w3.org/1999/xlink">
<g id="graph0" class="graph" transform="scale(1 1) rotate(0) translate(4 200)">
<title>%3</title>
<polygon fill="white" stroke="none" points="-4,4 -4,-200 218,-200 218,4 -4,4"/>
<g id="clust1" class="cluster"><title>cluster_1</title>
<polygon fill="none" stroke="black" points="8,-64 8,-188 150,-188 150,-64 8,-64"/>
</g>
<!-- node1 -->
<g id="node1" class="node"><title>node1</title>
<ellipse fill="none" stroke="black" cx="115" cy="-162" rx="27" ry="18"/>
<text text-anchor="middle" x="115" y="-158.3" font-family="Times,serif" font-size="14.00">a</text>
</g>
<!-- node2 -->
<g id="node2" class="node"><title>node2</title>
<ellipse fill="none" stroke="black" cx="187" cy="-90" rx="27" ry="18"/>
<text text-anchor="middle" x="187" y="-86.3" font-family="Times,serif" font-size="14.00">b</text>
</g>
<!-- node1&#45;&gt;node2 -->
<g id="edge1" class="edge"><title>node1&#45;&gt;node2</title>
<path fill="none" stroke="black" d="M129.57,-146.834C139.75,-136.938 153.524,-123.546 165.031,-112.359"/>
<polygon fill="black" stroke="black" points="167.474,-114.865 172.204,-105.385 162.595,-109.846 167.474,-114.865"/>
</g>
<!-- node3 -->
<g id="node3" class="node"><title>node3</title>
<ellipse fill="none" stroke="black" cx="43" cy="-90" rx="27" ry="18"/>
<text text-anchor="middle" x="43" y="-86.3" font-family="Times,serif" font-size="14.00">c</text>
</g>
<!-- node1&#45;&gt;node3 -->
<g id="edge2" class="edge"><title>node1&#45;&gt;node3</title>
<path fill="none" stroke="black" d="M100.43,-146.834C90.2501,-136.938 76.4761,-123.546 64.9694,-112.359"/>
<polygon fill="black" stroke="black" points="67.4055,-109.846 57.7957,-105.385 62.5259,-114.865 67.4055,-109.846"/>
</g>
<!-- node4 -->
<g id="node4" class="node"><title>node4</title>
<ellipse fill="none" stroke="black" cx="115" cy="-90" rx="27" ry="18"/>
<text text-anchor="middle" x="115" y="-86.3" font-family="Times,serif" font-size="14.00">d</text>
</g>
<!-- node1&#45;&gt;node4 -->
<g id="edge3" class="edge"><title>node1&#45;&gt;node4</title>
<path fill="none" stroke="black" d="M115,-143.697C115,-135.983 115,-126.712 115,-118.112"/>
<polygon fill="black" stroke="black" points="118.5,-118.104 115,-108.104 111.5,-118.104 118.5,-118.104"/>
</g>
<!-- node5 -->
<g id="node5" class="node"><title>node5</title>
<ellipse fill="none" stroke="black" cx="79" cy="-18" rx="27" ry="18"/>
<text text-anchor="middle" x="79" y="-14.3" font-family="Times,serif" font-size="14.00">e</text>
</g>
<!-- node2&#45;&gt;node5 -->
<g id="edge4" class="edge"><title>node2&#45;&gt;node5</title>
<path fill="none" stroke="black" d="M170.129,-75.6666C165.029,-71.7878 159.359,-67.6225 154,-64 139.139,-53.9554 122.024,-43.5994 107.899,-35.3579"/>
<polygon fill="black" stroke="black" points="109.512,-32.2474 99.1028,-30.272 106.008,-38.3074 109.512,-32.2474"/>
</g>
<!-- node6 -->
<g id="node6" class="node"><title>node6</title>
<ellipse fill="none" stroke="black" cx="187" cy="-18" rx="27" ry="18"/>
<text text-anchor="middle" x="187" y="-14.3" font-family="Times,serif" font-size="14.00">f</text>
</g>
<!-- node2&#45;&gt;node6 -->
<g id="edge5" class="edge"><title>node2&#45;&gt;node6</title>
<path fill="none" stroke="black" d="M187,-71.6966C187,-63.9827 187,-54.7125 187,-46.1124"/>
<polygon fill="black" stroke="black" points="190.5,-46.1043 187,-36.1043 183.5,-46.1044 190.5,-46.1043"/>
</g>
<!-- node3&#45;&gt;node5 -->
<g id="edge6" class="edge"><title>node3&#45;&gt;node5</title>
<path fill="none" stroke="black" d="M51.3496,-72.7646C55.7115,-64.2831 61.1469,-53.7144 66.0413,-44.1974"/>
<polygon fill="black" stroke="black" points="69.2346,-45.6409 70.6957,-35.1473 63.0096,-42.4395 69.2346,-45.6409"/>
</g>
</g>
</svg>
