<?xml version="1.0" encoding="UTF-8" standalone="no"?>
<!DOCTYPE svg PUBLIC "-//W3C//DTD SVG 1.1//EN"
 "http://www.w3.org/Graphics/SVG/1.1/DTD/svg11.dtd">
<!-- Generated by graphviz version 2.36.0 (20140111.2315)
 -->
<!-- Title: %3 Pages: 1 -->
<svg width="404pt" height="78pt"
 viewBox="0.00 0.00 404.00 78.00" xmlns="http://www.w3.org/2000/svg" xmlns:xlink="http://www.w3.org/1999/xlink">
<g id="graph0" class="graph" transform="scale(1 1) rotate(0) translate(4 74)">
<title>%3</title>
<polygon fill="white" stroke="none" points="-4,4 -4,-74 400,-74 400,4 -4,4"/>
<!-- node1 -->
<g id="node1" class="node"><title>node1</title>
<polygon fill="none" stroke="black" points="0,-17 0,-53 156,-53 156,-17 0,-17"/>
<text text-anchor="middle" x="35.5" y="-31.3" font-family="Times,serif" font-size="14.00">horizontal</text>
<polyline fill="none" stroke="black" points="71,-17 71,-53 "/>
<text text-anchor="middle" x="91.5" y="-31.3" font-family="Times,serif" font-size="14.00">does</text>
<polyline fill="none" stroke="black" points="112,-17 112,-53 "/>
<text text-anchor="middle" x="134" y="-31.3" font-family="Times,serif" font-size="14.00">work</text>
</g>
<!-- node2 -->
<g id="node2" class="node"><title>node2</title>
<polygon fill="none" stroke="black" points="174.5,-0.5 174.5,-69.5 231.5,-69.5 231.5,-0.5 174.5,-0.5"/>
<text text-anchor="middle" x="203" y="-54.3" font-family="Times,serif" font-size="14.00">vertical</text>
<polyline fill="none" stroke="black" points="174.5,-46.5 231.5,-46.5 "/>
<text text-anchor="middle" x="203" y="-31.3" font-family="Times,serif" font-size="14.00">works</text>
<polyline fill="none" stroke="black" points="174.5,-23.5 231.5,-23.5 "/>
<text text-anchor="middle" x="203" y="-8.3" font-family="Times,serif" font-size="14.00">too</text>
</g>
<!-- node3 -->
<g id="node3" class="node"><title>node3</title>
<polygon fill="none" stroke="black" points="249.5,-0.5 249.5,-69.5 396.5,-69.5 396.5,-0.5 249.5,-0.5"/>
<text text-anchor="middle" x="275" y="-31.3" font-family="Times,serif" font-size="14.00">mixed</text>
<polyline fill="none" stroke="black" points="300.5,-0.5 300.5,-69.5 "/>
<text text-anchor="middle" x="321" y="-54.3" font-family="Times,serif" font-size="14.00">can</text>
<polyline fill="none" stroke="black" points="300.5,-46.5 341.5,-46.5 "/>
<text text-anchor="middle" x="321" y="-31.3" font-family="Times,serif" font-size="14.00">be</text>
<polyline fill="none" stroke="black" points="300.5,-23.5 341.5,-23.5 "/>
<text text-anchor="middle" x="321" y="-8.3" font-family="Times,serif" font-size="14.00">used</text>
<polyline fill="none" stroke="black" points="341.5,-0.5 341.5,-69.5 "/>
<text text-anchor="middle" x="369" y="-31.3" font-family="Times,serif" font-size="14.00">as well</text>
</g>
</g>
</svg>
