<?xml version="1.0" encoding="UTF-8" standalone="no"?>
<!DOCTYPE svg PUBLIC "-//W3C//DTD SVG 1.1//EN"
 "http://www.w3.org/Graphics/SVG/1.1/DTD/svg11.dtd">
<!-- Generated by graphviz version 2.36.0 (20140111.2315)
 -->
<!-- Title: %3 Pages: 1 -->
<svg width="196pt" height="125pt"
 viewBox="0.00 0.00 196.00 125.00" xmlns="http://www.w3.org/2000/svg" xmlns:xlink="http://www.w3.org/1999/xlink">
<g id="graph0" class="graph" transform="scale(1 1) rotate(0) translate(4 121)">
<title>%3</title>
<polygon fill="white" stroke="none" points="-4,4 -4,-121 192,-121 192,4 -4,4"/>
<g id="clust1" class="cluster"><title>cluster_1</title>
<polygon fill="none" stroke="black" stroke-dasharray="5,2" points="8,-8 8,-109 180,-109 180,-8 8,-8"/>
<text text-anchor="middle" x="94" y="-93.8" font-family="Times,serif" font-size="14.00">10.0.0.1</text>
<text text-anchor="middle" x="94" y="-78.8" font-family="Times,serif" font-size="14.00">local time synchnorized</text>
</g>
<!-- node1 -->
<g id="node1" class="node"><title>node1</title>
<polygon fill="none" stroke="black" points="16.5,-16 16.5,-62 171.5,-62 171.5,-16 16.5,-16"/>
<text text-anchor="middle" x="54" y="-46.8" font-family="Times,serif" font-size="14.00">service</text>
<polyline fill="none" stroke="black" points="16.5,-39 91.5,-39 "/>
<text text-anchor="middle" x="54" y="-23.8" font-family="Times,serif" font-size="14.00">AAAAAA</text>
<polyline fill="none" stroke="black" points="91.5,-16 91.5,-62 "/>
<text text-anchor="middle" x="111.5" y="-35.3" font-family="Times,serif" font-size="14.00">blah</text>
<polyline fill="none" stroke="black" points="131.5,-16 131.5,-62 "/>
<text text-anchor="middle" x="151.5" y="-35.3" font-family="Times,serif" font-size="14.00">blah</text>
</g>
</g>
</svg>
