<?xml version="1.0" encoding="ISO-8859-1" standalone="no"?>
<!DOCTYPE svg PUBLIC "-//W3C//DTD SVG 1.1//EN" "http://www.w3.org/Graphics/SVG/1.1/DTD/svg11.dtd">
<svg version="1.1" baseProfile="full" id="body" width="8in" height="8in" viewBox="0 0 1 1" preserveAspectRatio="none" xmlns="http://www.w3.org/2000/svg" xmlns:xlink="http://www.w3.org/1999/xlink" xmlns:ev="http://www.w3.org/2001/xml-events">
<title>SVG drawing</title>
<desc>This was produced by version 4.4 of GNU libplot, a free library for exporting 2-D vector graphics.</desc>
<rect id="background" x="0" y="0" width="1" height="1" stroke="none" fill="white"/>
<g id="content" transform="translate(0,1) scale(1,-1) scale(0.00024414) " xml:space="preserve" stroke="black" stroke-linecap="butt" stroke-linejoin="miter" stroke-miterlimit="10.433" stroke-dasharray="none" stroke-dashoffset="0" stroke-opacity="1" fill="none" fill-rule="evenodd" fill-opacity="1" font-style="normal" font-variant="normal" font-weight="normal" font-stretch="normal" font-size-adjust="none" letter-spacing="normal" word-spacing="normal" text-anchor="start">
<text transform="translate(1110.9,3451.9) scale(1,-1) scale(8.6016) " font-family="Helvetica,sans-serif" font-size="20px" stroke="none" fill="black" >Imagine all the people ...</text>
<rect x="819.2" y="819.2" width="2457.6" height="2457.6" stroke-width="4.8188" />
<text transform="translate(709.79,662.21) scale(1,-1) scale(6.4512) " font-family="Helvetica,sans-serif" font-size="20px" stroke="none" fill="black" >-20</text>
<line x1="819.2" y1="819.2" x2="819.2" y2="3276.8" stroke-width="4.8188" stroke-dasharray="4.8188, 14.456" />
<line x1="819.2" y1="3276.8" x2="819.2" y2="3227.6" stroke-width="4.8188" />
<line x1="819.2" y1="819.2" x2="819.2" y2="868.35" stroke-width="4.8188" />
<text transform="translate(1017,662.21) scale(1,-1) scale(6.4512) " font-family="Helvetica,sans-serif" font-size="20px" stroke="none" fill="black" >-15</text>
<line x1="1126.4" y1="819.2" x2="1126.4" y2="3276.8" stroke-width="4.8188" stroke-dasharray="4.8188, 14.456" />
<line x1="1126.4" y1="3276.8" x2="1126.4" y2="3227.6" stroke-width="4.8188" />
<line x1="1126.4" y1="819.2" x2="1126.4" y2="868.35" stroke-width="4.8188" />
<text transform="translate(1324.2,662.21) scale(1,-1) scale(6.4512) " font-family="Helvetica,sans-serif" font-size="20px" stroke="none" fill="black" >-10</text>
<line x1="1433.6" y1="819.2" x2="1433.6" y2="3276.8" stroke-width="4.8188" stroke-dasharray="4.8188, 14.456" />
<line x1="1433.6" y1="3276.8" x2="1433.6" y2="3227.6" stroke-width="4.8188" />
<line x1="1433.6" y1="819.2" x2="1433.6" y2="868.35" stroke-width="4.8188" />
<text transform="translate(1667.3,662.21) scale(1,-1) scale(6.4512) " font-family="Helvetica,sans-serif" font-size="20px" stroke="none" fill="black" >-5</text>
<line x1="1740.8" y1="819.2" x2="1740.8" y2="3276.8" stroke-width="4.8188" stroke-dasharray="4.8188, 14.456" />
<line x1="1740.8" y1="3276.8" x2="1740.8" y2="3227.6" stroke-width="4.8188" />
<line x1="1740.8" y1="819.2" x2="1740.8" y2="868.35" stroke-width="4.8188" />
<text transform="translate(2012.1,662.21) scale(1,-1) scale(6.4512) " font-family="Helvetica,sans-serif" font-size="20px" stroke="none" fill="black" >0</text>
<line x1="2048" y1="819.2" x2="2048" y2="3276.8" stroke-width="4.8188" stroke-dasharray="4.8188, 14.456" />
<line x1="2048" y1="3276.8" x2="2048" y2="3227.6" stroke-width="4.8188" />
<line x1="2048" y1="819.2" x2="2048" y2="868.35" stroke-width="4.8188" />
<text transform="translate(2319.3,662.21) scale(1,-1) scale(6.4512) " font-family="Helvetica,sans-serif" font-size="20px" stroke="none" fill="black" >5</text>
<line x1="2355.2" y1="819.2" x2="2355.2" y2="3276.8" stroke-width="4.8188" stroke-dasharray="4.8188, 14.456" />
<line x1="2355.2" y1="3276.8" x2="2355.2" y2="3227.6" stroke-width="4.8188" />
<line x1="2355.2" y1="819.2" x2="2355.2" y2="868.35" stroke-width="4.8188" />
<text transform="translate(2590.7,662.21) scale(1,-1) scale(6.4512) " font-family="Helvetica,sans-serif" font-size="20px" stroke="none" fill="black" >10</text>
<line x1="2662.4" y1="819.2" x2="2662.4" y2="3276.8" stroke-width="4.8188" stroke-dasharray="4.8188, 14.456" />
<line x1="2662.4" y1="3276.8" x2="2662.4" y2="3227.6" stroke-width="4.8188" />
<line x1="2662.4" y1="819.2" x2="2662.4" y2="868.35" stroke-width="4.8188" />
<text transform="translate(2897.9,662.21) scale(1,-1) scale(6.4512) " font-family="Helvetica,sans-serif" font-size="20px" stroke="none" fill="black" >15</text>
<line x1="2969.6" y1="819.2" x2="2969.6" y2="3276.8" stroke-width="4.8188" stroke-dasharray="4.8188, 14.456" />
<line x1="2969.6" y1="3276.8" x2="2969.6" y2="3227.6" stroke-width="4.8188" />
<line x1="2969.6" y1="819.2" x2="2969.6" y2="868.35" stroke-width="4.8188" />
<text transform="translate(3205.1,662.21) scale(1,-1) scale(6.4512) " font-family="Helvetica,sans-serif" font-size="20px" stroke="none" fill="black" >20</text>
<line x1="3276.8" y1="819.2" x2="3276.8" y2="3276.8" stroke-width="4.8188" stroke-dasharray="4.8188, 14.456" />
<line x1="3276.8" y1="3276.8" x2="3276.8" y2="3227.6" stroke-width="4.8188" />
<line x1="3276.8" y1="819.2" x2="3276.8" y2="868.35" stroke-width="4.8188" />
<line x1="2048" y1="819.2" x2="2048" y2="3276.8" stroke-width="4.8188" stroke-dasharray="4.8188, 14.456" />
<text transform="translate(563.51,773.65) scale(1,-1) scale(6.4512) " font-family="Helvetica,sans-serif" font-size="20px" stroke="none" fill="black" >-20</text>
<line x1="819.2" y1="819.2" x2="3276.8" y2="819.2" stroke-width="4.8188" stroke-dasharray="4.8188, 14.456" />
<line x1="3276.8" y1="819.2" x2="3227.6" y2="819.2" stroke-width="4.8188" />
<line x1="819.2" y1="819.2" x2="868.35" y2="819.2" stroke-width="4.8188" />
<text transform="translate(563.51,1124.7) scale(1,-1) scale(6.4512) " font-family="Helvetica,sans-serif" font-size="20px" stroke="none" fill="black" >-15</text>
<line x1="819.2" y1="1170.3" x2="3276.8" y2="1170.3" stroke-width="4.8188" stroke-dasharray="4.8188, 14.456" />
<line x1="3276.8" y1="1170.3" x2="3227.6" y2="1170.3" stroke-width="4.8188" />
<line x1="819.2" y1="1170.3" x2="868.35" y2="1170.3" stroke-width="4.8188" />
<text transform="translate(563.51,1475.8) scale(1,-1) scale(6.4512) " font-family="Helvetica,sans-serif" font-size="20px" stroke="none" fill="black" >-10</text>
<line x1="819.2" y1="1521.4" x2="3276.8" y2="1521.4" stroke-width="4.8188" stroke-dasharray="4.8188, 14.456" />
<line x1="3276.8" y1="1521.4" x2="3227.6" y2="1521.4" stroke-width="4.8188" />
<line x1="819.2" y1="1521.4" x2="868.35" y2="1521.4" stroke-width="4.8188" />
<text transform="translate(635.25,1826.9) scale(1,-1) scale(6.4512) " font-family="Helvetica,sans-serif" font-size="20px" stroke="none" fill="black" >-5</text>
<line x1="819.2" y1="1872.5" x2="3276.8" y2="1872.5" stroke-width="4.8188" stroke-dasharray="4.8188, 14.456" />
<line x1="3276.8" y1="1872.5" x2="3227.6" y2="1872.5" stroke-width="4.8188" />
<line x1="819.2" y1="1872.5" x2="868.35" y2="1872.5" stroke-width="4.8188" />
<text transform="translate(710.6,2178) scale(1,-1) scale(6.4512) " font-family="Helvetica,sans-serif" font-size="20px" stroke="none" fill="black" >0</text>
<line x1="819.2" y1="2223.5" x2="3276.8" y2="2223.5" stroke-width="4.8188" stroke-dasharray="4.8188, 14.456" />
<line x1="3276.8" y1="2223.5" x2="3227.6" y2="2223.5" stroke-width="4.8188" />
<line x1="819.2" y1="2223.5" x2="868.35" y2="2223.5" stroke-width="4.8188" />
<text transform="translate(710.6,2529.1) scale(1,-1) scale(6.4512) " font-family="Helvetica,sans-serif" font-size="20px" stroke="none" fill="black" >5</text>
<line x1="819.2" y1="2574.6" x2="3276.8" y2="2574.6" stroke-width="4.8188" stroke-dasharray="4.8188, 14.456" />
<line x1="3276.8" y1="2574.6" x2="3227.6" y2="2574.6" stroke-width="4.8188" />
<line x1="819.2" y1="2574.6" x2="868.35" y2="2574.6" stroke-width="4.8188" />
<text transform="translate(638.86,2880.2) scale(1,-1) scale(6.4512) " font-family="Helvetica,sans-serif" font-size="20px" stroke="none" fill="black" >10</text>
<line x1="819.2" y1="2925.7" x2="3276.8" y2="2925.7" stroke-width="4.8188" stroke-dasharray="4.8188, 14.456" />
<line x1="3276.8" y1="2925.7" x2="3227.6" y2="2925.7" stroke-width="4.8188" />
<line x1="819.2" y1="2925.7" x2="868.35" y2="2925.7" stroke-width="4.8188" />
<text transform="translate(638.86,3231.3) scale(1,-1) scale(6.4512) " font-family="Helvetica,sans-serif" font-size="20px" stroke="none" fill="black" >15</text>
<line x1="819.2" y1="3276.8" x2="3276.8" y2="3276.8" stroke-width="4.8188" stroke-dasharray="4.8188, 14.456" />
<line x1="3276.8" y1="3276.8" x2="3227.6" y2="3276.8" stroke-width="4.8188" />
<line x1="819.2" y1="3276.8" x2="868.35" y2="3276.8" stroke-width="4.8188" />
<line x1="819.2" y1="2223.5" x2="3276.8" y2="2223.5" stroke-width="4.8188" stroke-dasharray="4.8188, 14.456" />
<text transform="translate(1467.1,501.24) scale(1,-1) scale(6.4512) " font-family="Helvetica,sans-serif" font-size="20px" stroke="none" fill="black" >... living life in peace</text>
<text transform="matrix(0 6.4512 6.4512 0 466.18 1363.9) " font-family="Helvetica,sans-serif" font-size="20px" stroke="none" fill="black" >John Lennon, &quot;Imagine&quot;</text>
<polyline points="2048,1170.3 2048,1170.3 2048,1170.3 2048,1170.3 2048,1170.3 2048,1170.3 2048.1,1170.2 2048.1,1170.2 2048.1,1170.2 2048.2,1170.2 2048.2,1170.2 2048.3,1170.1 2048.4,1170.1 2048.5,1170.1 2048.7,1170.1 2048.8,1170 2049,1170 2049.2,1170 2049.4,1170 2049.7,1170 2049.9,1170 2050.2,1170 2050.6,1170 2050.9,1170 2051.3,1170 2051.8,1170 2052.2,1170 2052.7,1170.1 2053.3,1170.1 2053.9,1170.2 2054.5,1170.2 2055.1,1170.3 2055.9,1170.4 2056.6,1170.5 2057.4,1170.6 2058.2,1170.8 2059.1,1170.9 2060.1,1171.1 2061,1171.3 2062.1,1171.5 2063.2,1171.7 2064.3,1172 2065.5,1172.3 2066.7,1172.6 2068,1172.9 2069.4,1173.3 2070.8,1173.7 2072.3,1174.1 2073.8,1174.6 2075.4,1175.1 2077.1,1175.6 2078.8,1176.2 2080.6,1176.8 2082.4,1177.4 2084.3,1178.1 2086.3,1178.9 2088.4,1179.6 2090.5,1180.4 2092.6,1181.3 2094.9,1182.2 2097.2,1183.1 2099.6,1184.2 2102,1185.2 2104.5,1186.3 2107.1,1187.5 2109.8,1188.7 2112.5,1190 2115.3,1191.3 2118.1,1192.7 2121.1,1194.2 2124.1,1195.7 2127.2,1197.3 2130.3,1198.9 2133.6,1200.6 2136.9,1202.4 2140.2,1204.3 2143.7,1206.2 2147.2,1208.2 2150.8,1210.2 2154.5,1212.4 2158.2,1214.6 2162,1216.9 2165.9,1219.3 2169.9,1221.7 2173.9,1224.3 2178,1226.9 2182.2,1229.6 2186.5,1232.4 2190.8,1235.3 2195.2,1238.2 2199.6,1241.3 2204.2,1244.4 2208.8,1247.6 2213.5,1250.9 2218.2,1254.3 2223,1257.8 2227.9,1261.4 2232.9,1265.1 2237.9,1268.9 2243,1272.8 2248.1,1276.8 2253.4,1280.8 2258.7,1285 2264,1289.3 2269.4,1293.7 2274.9,1298.1 2280.5,1302.7 2286.1,1307.4 2291.7,1312.2 2297.5,1317 2303.2,1322 2309.1,1327.1 2315,1332.3 2320.9,1337.6 2326.9,1343 2333,1348.5 2339.1,1354.1 2345.3,1359.8 2351.5,1365.7 2357.8,1371.6 2364.1,1377.6 2370.5,1383.8 2376.9,1390 2383.3,1396.4 2389.8,1402.8 2396.4,1409.4 2403,1416.1 2409.6,1422.8 2416.2,1429.7 2422.9,1436.7 2429.7,1443.8 2436.4,1451 2443.2,1458.3 2450.1,1465.7 2456.9,1473.2 2463.8,1480.8 2470.8,1488.5 2477.7,1496.3 2484.7,1504.2 2491.7,1512.2 2498.7,1520.3 2505.7,1528.5 2512.8,1536.8 2519.8,1545.1 2526.9,1553.6 2534,1562.2 2541.1,1570.9 2548.2,1579.6 2555.3,1588.5 2562.5,1597.4 2569.6,1606.5 2576.7,1615.6 2583.9,1624.8 2591,1634.1 2598.2,1643.5 2605.3,1652.9 2612.4,1662.5 2619.5,1672.1 2626.6,1681.8 2633.7,1691.6 2640.8,1701.4 2647.9,1711.3 2655,1721.3 2662,1731.4 2669,1741.5 2676,1751.7 2683,1762 2690,1772.3 2696.9,1782.7 2703.8,1793.1 2710.7,1803.6 2717.5,1814.2 2724.3,1824.8 2731.1,1835.5 2737.8,1846.2 2744.5,1857 2751.2,1867.8 2757.8,1878.6 2764.4,1889.6 2770.9,1900.5 2777.4,1911.5 2783.8,1922.5 2790.2,1933.5 2796.5,1944.6 2802.8,1955.7 2809,1966.9 2815.2,1978 2821.3,1989.2 2827.4,2000.4 2833.3,2011.7 2839.3,2022.9 2845.1,2034.2 2850.9,2045.5 2856.6,2056.7 2862.3,2068 2867.9,2079.3 2873.4,2090.6 2878.8,2101.9 2884.2,2113.2 2889.5,2124.5 2894.7,2135.8 2899.8,2147.1 2904.9,2158.4 2909.8,2169.7 2914.7,2180.9 2919.5,2192.2 2924.2,2203.4 2928.8,2214.6 2933.4,2225.7 2937.8,2236.9 2942.2,2248 2946.4,2259.1 2950.6,2270.2 2954.7,2281.2 2958.7,2292.2 2962.5,2303.1 2966.3,2314 2970,2324.9 2973.6,2335.7 2977.1,2346.5 2980.5,2357.2 2983.7,2367.9 2986.9,2378.5 2990,2389.1 2993,2399.6 2995.8,2410 2998.6,2420.4 3001.2,2430.8 3003.7,2441 3006.2,2451.2 3008.5,2461.3 3010.7,2471.4 3012.8,2481.4 3014.8,2491.3 3016.7,2501.1 3018.4,2510.9 3020.1,2520.6 3021.6,2530.2 3023,2539.7 3024.3,2549.1 3025.5,2558.5 3026.6,2567.7 3027.5,2576.9 3028.4,2586 3029.1,2595 3029.7,2603.9 3030.2,2612.7 3030.6,2621.4 3030.9,2630 3031,2638.5 3031,2646.9 3030.9,2655.3 3030.7,2663.5 3030.4,2671.6 3030,2679.6 3029.4,2687.5 3028.8,2695.3 3028,2703 3027.1,2710.6 3026.1,2718 3024.9,2725.4 3023.7,2732.7 3022.3,2739.8 3020.8,2746.8 3019.2,2753.8 3017.5,2760.6 3015.7,2767.3 3013.8,2773.9 3011.8,2780.3 3009.6,2786.7 3007.3,2792.9 3005,2799 3002.5,2805 2999.9,2810.9 2997.2,2816.7 2994.4,2822.3 2991.5,2827.9 2988.5,2833.3 2985.3,2838.6 2982.1,2843.8 2978.8,2848.9 2975.3,2853.8 2971.8,2858.6 2968.2,2863.4 2964.4,2868 2960.6,2872.4 2956.7,2876.8 2952.7,2881 2948.5,2885.2 2944.3,2889.2 2940,2893.1 2935.6,2896.9 2931.1,2900.5 2926.5,2904.1 2921.9,2907.5 2917.1,2910.9 2912.3,2914.1 2907.4,2917.2 2902.3,2920.1 2897.3,2923 2892.1,2925.8 2886.8,2928.4 2881.5,2931 2876.1,2933.4 2870.6,2935.7 2865.1,2938 2859.5,2940.1 2853.8,2942.1 2848,2944 2842.2,2945.8 2836.3,2947.5 2830.4,2949.1 2824.3,2950.6 2818.3,2952 2812.1,2953.3 2805.9,2954.5 2799.7,2955.6 2793.4,2956.6 2787,2957.5 2780.6,2958.4 2774.2,2959.1 2767.7,2959.7 2761.1,2960.3 2754.5,2960.7 2747.9,2961.1 2741.2,2961.4 2734.5,2961.6 2727.7,2961.7 2720.9,2961.8 2714.1,2961.7 2707.3,2961.6 2700.4,2961.4 2693.4,2961.2 2686.5,2960.8 2679.5,2960.4 2672.5,2959.9 2665.5,2959.3 2658.5,2958.7 2651.4,2958 2644.4,2957.3 2637.3,2956.4 2630.2,2955.5 2623.1,2954.6 2616,2953.5 2608.8,2952.5 2601.7,2951.3 2594.6,2950.1 2587.4,2948.9 2580.3,2947.6 2573.2,2946.2 2566,2944.8 2558.9,2943.4 2551.8,2941.9 2544.7,2940.3 2537.5,2938.7 2530.4,2937.1 2523.4,2935.4 2516.3,2933.7 2509.2,2931.9 2502.2,2930.1 2495.2,2928.3 2488.2,2926.4 2481.2,2924.5 2474.2,2922.6 2467.3,2920.6 2460.4,2918.6 2453.5,2916.6 2446.7,2914.5 2439.8,2912.4 2433.1,2910.3 2426.3,2908.2 2419.6,2906.1 2412.9,2903.9 2406.3,2901.7 2399.7,2899.5 2393.1,2897.3 2386.6,2895 2380.1,2892.8 2373.7,2890.5 2367.3,2888.2 2360.9,2885.9 2354.6,2883.6 2348.4,2881.3 2342.2,2879 2336.1,2876.6 2330,2874.3 2323.9,2871.9 2317.9,2869.6 2312,2867.2 2306.2,2864.9 2300.3,2862.5 2294.6,2860.2 2288.9,2857.9 2283.3,2855.5 2277.7,2853.2 2272.2,2850.8 2266.7,2848.5 2261.3,2846.2 2256,2843.8 2250.8,2841.5 2245.6,2839.2 2240.4,2836.9 2235.4,2834.6 2230.4,2832.3 2225.5,2830.1 2220.6,2827.8 2215.8,2825.6 2211.1,2823.3 2206.5,2821.1 2201.9,2818.9 2197.4,2816.7 2193,2814.6 2188.6,2812.4 2184.3,2810.3 2180.1,2808.1 2176,2806 2171.9,2803.9 2167.9,2801.9 2164,2799.8 2160.1,2797.8 2156.3,2795.8 2152.6,2793.8 2149,2791.8 2145.4,2789.9 2142,2787.9 2138.5,2786 2135.2,2784.2 2131.9,2782.3 2128.7,2780.5 2125.6,2778.6 2122.6,2776.8 2119.6,2775.1 2116.7,2773.3 2113.9,2771.6 2111.1,2769.9 2108.4,2768.3 2105.8,2766.6 2103.2,2765 2100.8,2763.4 2098.4,2761.8 2096,2760.3 2093.7,2758.8 2091.5,2757.3 2089.4,2755.8 2087.3,2754.3 2085.3,2752.9 2083.4,2751.5 2081.5,2750.2 2079.7,2748.8 2077.9,2747.5 2076.3,2746.2 2074.6,2745 2073.1,2743.7 2071.6,2742.5 2070.1,2741.3 2068.7,2740.2 2067.4,2739.1 2066.1,2738 2064.9,2736.9 2063.7,2735.8 2062.6,2734.8 2061.6,2733.8 2060.5,2732.8 2059.6,2731.9 2058.7,2731 2057.8,2730.1 2057,2729.2 2056.2,2728.4 2055.5,2727.6 2054.8,2726.8 2054.2,2726 2053.6,2725.3 2053,2724.6 2052.5,2723.9 2052,2723.2 2051.6,2722.6 2051.1,2722 2050.8,2721.4 2050.4,2720.9 2050.1,2720.3 2049.8,2719.8 2049.5,2719.4 2049.3,2718.9 2049.1,2718.5 2048.9,2718.1 2048.7,2717.7 2048.6,2717.3 2048.5,2717 2048.4,2716.7 2048.3,2716.4 2048.2,2716.2 2048.1,2716 2048.1,2715.8 2048.1,2715.6 2048,2715.4 2048,2715.3 2048,2715.2 2048,2715.1 2048,2715.1 2048,2715.1 " stroke="red" stroke-width="61.44" stroke-dasharray="430.08, 245.76" />
<polyline points="2048,2715.1 2048,2715.1 2048,2715.1 2048,2715.1 2048,2715.2 2048,2715.3 2048,2715.4 2047.9,2715.6 2047.9,2715.8 2047.9,2716 2047.8,2716.2 2047.7,2716.4 2047.6,2716.7 2047.5,2717 2047.4,2717.3 2047.3,2717.7 2047.1,2718.1 2046.9,2718.5 2046.7,2718.9 2046.5,2719.4 2046.2,2719.8 2045.9,2720.3 2045.6,2720.9 2045.2,2721.4 2044.9,2722 2044.4,2722.6 2044,2723.2 2043.5,2723.9 2043,2724.6 2042.4,2725.3 2041.8,2726 2041.2,2726.8 2040.5,2727.6 2039.8,2728.4 2039,2729.2 2038.2,2730.1 2037.3,2731 2036.4,2731.9 2035.5,2732.8 2034.4,2733.8 2033.4,2734.8 2032.3,2735.8 2031.1,2736.9 2029.9,2738 2028.6,2739.1 2027.3,2740.2 2025.9,2741.3 2024.4,2742.5 2022.9,2743.7 2021.4,2745 2019.7,2746.2 2018.1,2747.5 2016.3,2748.8 2014.5,2750.2 2012.6,2751.5 2010.7,2752.9 2008.7,2754.3 2006.6,2755.8 2004.5,2757.3 2002.3,2758.8 2000,2760.3 1997.6,2761.8 1995.2,2763.4 1992.8,2765 1990.2,2766.6 1987.6,2768.3 1984.9,2769.9 1982.1,2771.6 1979.3,2773.3 1976.4,2775.1 1973.4,2776.8 1970.4,2778.6 1967.3,2780.5 1964.1,2782.3 1960.8,2784.2 1957.5,2786 1954,2787.9 1950.6,2789.9 1947,2791.8 1943.4,2793.8 1939.7,2795.8 1935.9,2797.8 1932,2799.8 1928.1,2801.9 1924.1,2803.9 1920,2806 1915.9,2808.1 1911.7,2810.3 1907.4,2812.4 1903,2814.6 1898.6,2816.7 1894.1,2818.9 1889.5,2821.1 1884.9,2823.3 1880.2,2825.6 1875.4,2827.8 1870.5,2830.1 1865.6,2832.3 1860.6,2834.6 1855.6,2836.9 1850.4,2839.2 1845.2,2841.5 1840,2843.8 1834.7,2846.2 1829.3,2848.5 1823.8,2850.8 1818.3,2853.2 1812.7,2855.5 1807.1,2857.9 1801.4,2860.2 1795.7,2862.5 1789.8,2864.9 1784,2867.2 1778.1,2869.6 1772.1,2871.9 1766,2874.3 1759.9,2876.6 1753.8,2879 1747.6,2881.3 1741.4,2883.6 1735.1,2885.9 1728.7,2888.2 1722.3,2890.5 1715.9,2892.8 1709.4,2895 1702.9,2897.3 1696.3,2899.5 1689.7,2901.7 1683.1,2903.9 1676.4,2906.1 1669.7,2908.2 1662.9,2910.3 1656.2,2912.4 1649.3,2914.5 1642.5,2916.6 1635.6,2918.6 1628.7,2920.6 1621.8,2922.6 1614.8,2924.5 1607.8,2926.4 1600.8,2928.3 1593.8,2930.1 1586.8,2931.9 1579.7,2933.7 1572.6,2935.4 1565.6,2937.1 1558.5,2938.7 1551.3,2940.3 1544.2,2941.9 1537.1,2943.4 1530,2944.8 1522.8,2946.2 1515.7,2947.6 1508.6,2948.9 1501.4,2950.1 1494.3,2951.3 1487.2,2952.5 1480,2953.5 1472.9,2954.6 1465.8,2955.5 1458.7,2956.4 1451.6,2957.3 1444.6,2958 1437.5,2958.7 1430.5,2959.3 1423.5,2959.9 1416.5,2960.4 1409.5,2960.8 1402.6,2961.2 1395.6,2961.4 1388.7,2961.6 1381.9,2961.7 1375.1,2961.8 1368.3,2961.7 1361.5,2961.6 1354.8,2961.4 1348.1,2961.1 1341.5,2960.7 1334.9,2960.3 1328.3,2959.7 1321.8,2959.1 1315.4,2958.4 1309,2957.5 1302.6,2956.6 1296.3,2955.6 1290.1,2954.5 1283.9,2953.3 1277.7,2952 1271.7,2950.6 1265.6,2949.1 1259.7,2947.5 1253.8,2945.8 1248,2944 1242.2,2942.1 1236.5,2940.1 1230.9,2938 1225.4,2935.7 1219.9,2933.4 1214.5,2931 1209.2,2928.4 1203.9,2925.8 1198.7,2923 1193.7,2920.1 1188.6,2917.2 1183.7,2914.1 1178.9,2910.9 1174.1,2907.5 1169.5,2904.1 1164.9,2900.5 1160.4,2896.9 1156,2893.1 1151.7,2889.2 1147.5,2885.2 1143.3,2881 1139.3,2876.8 1135.4,2872.4 1131.6,2868 1127.8,2863.4 1124.2,2858.6 1120.7,2853.8 1117.2,2848.9 1113.9,2843.8 1110.7,2838.6 1107.5,2833.3 1104.5,2827.9 1101.6,2822.3 1098.8,2816.7 1096.1,2810.9 1093.5,2805 1091,2799 1088.7,2792.9 1086.4,2786.7 1084.2,2780.3 1082.2,2773.9 1080.3,2767.3 1078.5,2760.6 1076.8,2753.8 1075.2,2746.8 1073.7,2739.8 1072.3,2732.7 1071.1,2725.4 1069.9,2718 1068.9,2710.6 1068,2703 1067.2,2695.3 1066.6,2687.5 1066,2679.6 1065.6,2671.6 1065.3,2663.5 1065.1,2655.3 1065,2646.9 1065,2638.5 1065.1,2630 1065.4,2621.4 1065.8,2612.7 1066.3,2603.9 1066.9,2595 1067.6,2586 1068.5,2576.9 1069.4,2567.7 1070.5,2558.5 1071.7,2549.1 1073,2539.7 1074.4,2530.2 1075.9,2520.6 1077.6,2510.9 1079.3,2501.1 1081.2,2491.3 1083.2,2481.4 1085.3,2471.4 1087.5,2461.3 1089.8,2451.2 1092.3,2441 1094.8,2430.8 1097.4,2420.4 1100.2,2410 1103,2399.6 1106,2389.1 1109.1,2378.5 1112.3,2367.9 1115.5,2357.2 1118.9,2346.5 1122.4,2335.7 1126,2324.9 1129.7,2314 1133.5,2303.1 1137.3,2292.2 1141.3,2281.2 1145.4,2270.2 1149.6,2259.1 1153.8,2248 1158.2,2236.9 1162.6,2225.7 1167.2,2214.6 1171.8,2203.4 1176.5,2192.2 1181.3,2180.9 1186.2,2169.7 1191.1,2158.4 1196.2,2147.1 1201.3,2135.8 1206.5,2124.5 1211.8,2113.2 1217.2,2101.9 1222.6,2090.6 1228.1,2079.3 1233.7,2068 1239.4,2056.7 1245.1,2045.5 1250.9,2034.2 1256.7,2022.9 1262.7,2011.7 1268.6,2000.4 1274.7,1989.2 1280.8,1978 1287,1966.9 1293.2,1955.7 1299.5,1944.6 1305.8,1933.5 1312.2,1922.5 1318.6,1911.5 1325.1,1900.5 1331.6,1889.6 1338.2,1878.6 1344.8,1867.8 1351.5,1857 1358.2,1846.2 1364.9,1835.5 1371.7,1824.8 1378.5,1814.2 1385.3,1803.6 1392.2,1793.1 1399.1,1782.7 1406,1772.3 1413,1762 1420,1751.7 1427,1741.5 1434,1731.4 1441,1721.3 1448.1,1711.3 1455.2,1701.4 1462.3,1691.6 1469.4,1681.8 1476.5,1672.1 1483.6,1662.5 1490.7,1652.9 1497.8,1643.5 1505,1634.1 1512.1,1624.8 1519.3,1615.6 1526.4,1606.5 1533.5,1597.4 1540.7,1588.5 1547.8,1579.6 1554.9,1570.9 1562,1562.2 1569.1,1553.6 1576.2,1545.1 1583.2,1536.8 1590.3,1528.5 1597.3,1520.3 1604.3,1512.2 1611.3,1504.2 1618.3,1496.3 1625.2,1488.5 1632.2,1480.8 1639.1,1473.2 1645.9,1465.7 1652.8,1458.3 1659.6,1451 1666.3,1443.8 1673.1,1436.7 1679.8,1429.7 1686.4,1422.8 1693,1416.1 1699.6,1409.4 1706.2,1402.8 1712.7,1396.4 1719.1,1390 1725.5,1383.8 1731.9,1377.6 1738.2,1371.6 1744.5,1365.7 1750.7,1359.8 1756.9,1354.1 1763,1348.5 1769.1,1343 1775.1,1337.6 1781,1332.3 1786.9,1327.1 1792.8,1322 1798.5,1317 1804.3,1312.2 1809.9,1307.4 1815.5,1302.7 1821.1,1298.1 1826.6,1293.7 1832,1289.3 1837.3,1285 1842.6,1280.8 1847.9,1276.8 1853,1272.8 1858.1,1268.9 1863.1,1265.1 1868.1,1261.4 1873,1257.8 1877.8,1254.3 1882.5,1250.9 1887.2,1247.6 1891.8,1244.4 1896.4,1241.3 1900.8,1238.2 1905.2,1235.3 1909.5,1232.4 1913.8,1229.6 1918,1226.9 1922.1,1224.3 1926.1,1221.7 1930.1,1219.3 1934,1216.9 1937.8,1214.6 1941.5,1212.4 1945.2,1210.2 1948.8,1208.2 1952.3,1206.2 1955.8,1204.3 1959.1,1202.4 1962.4,1200.6 1965.7,1198.9 1968.8,1197.3 1971.9,1195.7 1974.9,1194.2 1977.9,1192.7 1980.7,1191.3 1983.5,1190 1986.2,1188.7 1988.9,1187.5 1991.5,1186.3 1994,1185.2 1996.4,1184.2 1998.8,1183.1 2001.1,1182.2 2003.4,1181.3 2005.5,1180.4 2007.6,1179.6 2009.7,1178.9 2011.7,1178.1 2013.6,1177.4 2015.4,1176.8 2017.2,1176.2 2018.9,1175.6 2020.6,1175.1 2022.2,1174.6 2023.7,1174.1 2025.2,1173.7 2026.6,1173.3 2028,1172.9 2029.3,1172.6 2030.5,1172.3 2031.7,1172 2032.8,1171.7 2033.9,1171.5 2035,1171.3 2035.9,1171.1 2036.9,1170.9 2037.8,1170.8 2038.6,1170.6 2039.4,1170.5 2040.1,1170.4 2040.9,1170.3 2041.5,1170.2 2042.1,1170.2 2042.7,1170.1 2043.3,1170.1 2043.8,1170 2044.2,1170 2044.7,1170 2045.1,1170 2045.4,1170 2045.8,1170 2046.1,1170 2046.3,1170 2046.6,1170 2046.8,1170 2047,1170 2047.2,1170 2047.3,1170.1 2047.5,1170.1 2047.6,1170.1 2047.7,1170.1 2047.8,1170.2 2047.8,1170.2 2047.9,1170.2 2047.9,1170.2 2047.9,1170.2 2048,1170.3 2048,1170.3 2048,1170.3 2048,1170.3 2048,1170.3 " stroke="red" stroke-width="61.44" stroke-dasharray="430.08, 245.76" />
<line x1="2048" y1="1170.3" x2="2048" y2="1170.3" stroke="red" stroke-width="61.44" stroke-dasharray="430.08, 245.76" />
</g>
</svg>
